<svg xmlns="http://www.w3.org/2000/svg" viewBox="0 0 1200 630" width="1200" height="630">
  <defs>
    <linearGradient id="grad" x1="0%" y1="0%" x2="100%" y2="100%">
      <stop offset="0%" stop-color="#06b6d4"/>
      <stop offset="100%" stop-color="#10b981"/>
    </linearGradient>
  </defs>
  <rect width="1200" height="630" fill="#0f172a"/>
  <!-- Pod grid - row 1 -->
  <rect x="370" y="140" width="80" height="80" rx="8" fill="none" stroke="url(#grad)" stroke-width="1.5" opacity="0.7"/>
  <rect x="375" y="145" width="70" height="70" rx="5" fill="url(#grad)" opacity="0.05"/>
  <rect x="470" y="140" width="80" height="80" rx="8" fill="none" stroke="url(#grad)" stroke-width="1.5" opacity="0.65"/>
  <rect x="475" y="145" width="70" height="70" rx="5" fill="url(#grad)" opacity="0.05"/>
  <rect x="570" y="140" width="80" height="80" rx="8" fill="none" stroke="url(#grad)" stroke-width="1.5" opacity="0.6"/>
  <rect x="575" y="145" width="70" height="70" rx="5" fill="url(#grad)" opacity="0.05"/>
  <rect x="670" y="140" width="80" height="80" rx="8" fill="none" stroke="url(#grad)" stroke-width="1.5" opacity="0.55"/>
  <rect x="675" y="145" width="70" height="70" rx="5" fill="url(#grad)" opacity="0.04"/>
  <!-- Pod grid - row 2 -->
  <rect x="370" y="240" width="80" height="80" rx="8" fill="none" stroke="url(#grad)" stroke-width="1.5" opacity="0.6"/>
  <rect x="375" y="245" width="70" height="70" rx="5" fill="url(#grad)" opacity="0.05"/>
  <rect x="470" y="240" width="80" height="80" rx="8" fill="none" stroke="url(#grad)" stroke-width="2" opacity="0.9"/>
  <rect x="475" y="245" width="70" height="70" rx="5" fill="url(#grad)" opacity="0.08"/>
  <rect x="570" y="240" width="80" height="80" rx="8" fill="none" stroke="url(#grad)" stroke-width="2" opacity="0.85"/>
  <rect x="575" y="245" width="70" height="70" rx="5" fill="url(#grad)" opacity="0.07"/>
  <rect x="670" y="240" width="80" height="80" rx="8" fill="none" stroke="url(#grad)" stroke-width="1.5" opacity="0.55"/>
  <rect x="675" y="245" width="70" height="70" rx="5" fill="url(#grad)" opacity="0.04"/>
  <!-- Pod grid - row 3 -->
  <rect x="370" y="340" width="80" height="80" rx="8" fill="none" stroke="url(#grad)" stroke-width="1.5" opacity="0.5"/>
  <rect x="470" y="340" width="80" height="80" rx="8" fill="none" stroke="url(#grad)" stroke-width="1.5" opacity="0.55"/>
  <rect x="570" y="340" width="80" height="80" rx="8" fill="none" stroke="url(#grad)" stroke-width="1.5" opacity="0.5"/>
  <rect x="670" y="340" width="80" height="80" rx="8" fill="none" stroke="url(#grad)" stroke-width="1.5" opacity="0.45"/>
  <!-- Inner container symbols -->
  <rect x="393" y="163" width="34" height="34" rx="3" fill="none" stroke="url(#grad)" stroke-width="0.8" opacity="0.35"/>
  <rect x="493" y="163" width="34" height="34" rx="3" fill="none" stroke="url(#grad)" stroke-width="0.8" opacity="0.3"/>
  <rect x="593" y="163" width="34" height="34" rx="3" fill="none" stroke="url(#grad)" stroke-width="0.8" opacity="0.3"/>
  <rect x="493" y="263" width="34" height="34" rx="3" fill="none" stroke="url(#grad)" stroke-width="1" opacity="0.5"/>
  <rect x="593" y="263" width="34" height="34" rx="3" fill="none" stroke="url(#grad)" stroke-width="1" opacity="0.45"/>
  <!-- Connection lines between pods -->
  <line x1="450" y1="180" x2="470" y2="180" stroke="url(#grad)" stroke-width="0.8" opacity="0.25"/>
  <line x1="550" y1="180" x2="570" y2="180" stroke="url(#grad)" stroke-width="0.8" opacity="0.25"/>
  <line x1="650" y1="180" x2="670" y2="180" stroke="url(#grad)" stroke-width="0.8" opacity="0.25"/>
  <line x1="450" y1="280" x2="470" y2="280" stroke="url(#grad)" stroke-width="0.8" opacity="0.3"/>
  <line x1="550" y1="280" x2="570" y2="280" stroke="url(#grad)" stroke-width="0.8" opacity="0.3"/>
  <line x1="410" y1="220" x2="410" y2="240" stroke="url(#grad)" stroke-width="0.8" opacity="0.25"/>
  <line x1="510" y1="220" x2="510" y2="240" stroke="url(#grad)" stroke-width="0.8" opacity="0.3"/>
  <line x1="610" y1="220" x2="610" y2="240" stroke="url(#grad)" stroke-width="0.8" opacity="0.3"/>
  <line x1="510" y1="320" x2="510" y2="340" stroke="url(#grad)" stroke-width="0.8" opacity="0.25"/>
  <line x1="610" y1="320" x2="610" y2="340" stroke="url(#grad)" stroke-width="0.8" opacity="0.25"/>
  <!-- Outer orchestration ring -->
  <rect x="340" y="110" width="440" height="330" rx="16" fill="none" stroke="url(#grad)" stroke-width="1" opacity="0.2" stroke-dasharray="8 4"/>
  <!-- Accent dots -->
  <circle cx="510" cy="280" r="4" fill="url(#grad)" opacity="0.6"/>
  <circle cx="610" cy="280" r="4" fill="url(#grad)" opacity="0.55"/>
  <circle cx="410" cy="180" r="3" fill="url(#grad)" opacity="0.4"/>
</svg>