<svg xmlns="http://www.w3.org/2000/svg" viewBox="0 0 1200 630" width="1200" height="630">
  <defs>
    <linearGradient id="grad" x1="0%" y1="0%" x2="100%" y2="100%">
      <stop offset="0%" stop-color="#06b6d4"/>
      <stop offset="100%" stop-color="#10b981"/>
    </linearGradient>
  </defs>
  <rect width="1200" height="630" fill="#0f172a"/>
  <!-- Server rack -->
  <rect x="420" y="130" width="200" height="380" rx="10" fill="none" stroke="url(#grad)" stroke-width="2" opacity="0.7"/>
  <rect x="425" y="135" width="190" height="370" rx="8" fill="url(#grad)" opacity="0.03"/>
  <!-- Server units -->
  <rect x="440" y="155" width="160" height="50" rx="4" fill="none" stroke="url(#grad)" stroke-width="1.5" opacity="0.6"/>
  <rect x="445" y="160" width="150" height="40" rx="2" fill="url(#grad)" opacity="0.04"/>
  <circle cx="465" cy="180" r="4" fill="url(#grad)" opacity="0.5"/>
  <circle cx="485" cy="180" r="4" fill="url(#grad)" opacity="0.4"/>
  <line x1="510" y1="175" x2="580" y2="175" stroke="url(#grad)" stroke-width="1" opacity="0.2"/>
  <line x1="510" y1="185" x2="560" y2="185" stroke="url(#grad)" stroke-width="0.8" opacity="0.15"/>
  <rect x="440" y="220" width="160" height="50" rx="4" fill="none" stroke="url(#grad)" stroke-width="1.5" opacity="0.55"/>
  <rect x="445" y="225" width="150" height="40" rx="2" fill="url(#grad)" opacity="0.04"/>
  <circle cx="465" cy="245" r="4" fill="url(#grad)" opacity="0.5"/>
  <circle cx="485" cy="245" r="4" fill="url(#grad)" opacity="0.35"/>
  <line x1="510" y1="240" x2="580" y2="240" stroke="url(#grad)" stroke-width="1" opacity="0.2"/>
  <line x1="510" y1="250" x2="555" y2="250" stroke="url(#grad)" stroke-width="0.8" opacity="0.15"/>
  <rect x="440" y="285" width="160" height="50" rx="4" fill="none" stroke="url(#grad)" stroke-width="1.5" opacity="0.5"/>
  <rect x="445" y="290" width="150" height="40" rx="2" fill="url(#grad)" opacity="0.03"/>
  <circle cx="465" cy="310" r="4" fill="url(#grad)" opacity="0.45"/>
  <circle cx="485" cy="310" r="4" fill="url(#grad)" opacity="0.3"/>
  <line x1="510" y1="305" x2="575" y2="305" stroke="url(#grad)" stroke-width="1" opacity="0.18"/>
  <line x1="510" y1="315" x2="550" y2="315" stroke="url(#grad)" stroke-width="0.8" opacity="0.12"/>
  <rect x="440" y="350" width="160" height="50" rx="4" fill="none" stroke="url(#grad)" stroke-width="1.5" opacity="0.45"/>
  <circle cx="465" cy="375" r="4" fill="url(#grad)" opacity="0.4"/>
  <circle cx="485" cy="375" r="4" fill="url(#grad)" opacity="0.25"/>
  <line x1="510" y1="370" x2="570" y2="370" stroke="url(#grad)" stroke-width="1" opacity="0.15"/>
  <line x1="510" y1="380" x2="545" y2="380" stroke="url(#grad)" stroke-width="0.8" opacity="0.1"/>
  <rect x="440" y="415" width="160" height="50" rx="4" fill="none" stroke="url(#grad)" stroke-width="1.2" opacity="0.35"/>
  <circle cx="465" cy="440" r="4" fill="url(#grad)" opacity="0.3"/>
  <circle cx="485" cy="440" r="4" fill="url(#grad)" opacity="0.2"/>
  <!-- Connection to cloud -->
  <line x1="620" y1="250" x2="700" y2="230" stroke="url(#grad)" stroke-width="1.5" opacity="0.35" stroke-dasharray="6 4"/>
  <line x1="620" y1="310" x2="700" y2="300" stroke="url(#grad)" stroke-width="1.5" opacity="0.3" stroke-dasharray="6 4"/>
  <!-- Cloud shape -->
  <path d="M740 220 Q740 185 775 185 Q790 165 820 175 Q850 165 860 190 Q890 190 890 220 Q890 250 860 250 L760 250 Q740 250 740 220 Z" fill="none" stroke="url(#grad)" stroke-width="2" opacity="0.6"/>
  <path d="M745 222 Q745 190 778 190 Q792 172 820 180 Q848 170 857 193 Q885 193 885 222 Q885 247 858 247 L762 247 Q745 247 745 222 Z" fill="url(#grad)" opacity="0.04"/>
  <!-- Cloud internal lines -->
  <line x1="770" y1="215" x2="850" y2="215" stroke="url(#grad)" stroke-width="0.8" opacity="0.2"/>
  <line x1="780" y1="230" x2="840" y2="230" stroke="url(#grad)" stroke-width="0.6" opacity="0.15"/>
  <!-- Upload arrow in cloud -->
  <line x1="815" y1="235" x2="815" y2="200" stroke="url(#grad)" stroke-width="1.5" opacity="0.45"/>
  <polygon points="815,195 808,207 822,207" fill="url(#grad)" opacity="0.45"/>
  <!-- Vertical lines at bottom (cables) -->
  <line x1="480" y1="510" x2="480" y2="550" stroke="url(#grad)" stroke-width="1" opacity="0.15"/>
  <line x1="500" y1="510" x2="500" y2="550" stroke="url(#grad)" stroke-width="1" opacity="0.15"/>
  <line x1="520" y1="510" x2="520" y2="550" stroke="url(#grad)" stroke-width="1" opacity="0.15"/>
  <line x1="540" y1="510" x2="540" y2="550" stroke="url(#grad)" stroke-width="1" opacity="0.15"/>
</svg>