<svg xmlns="http://www.w3.org/2000/svg" viewBox="0 0 1200 630" width="1200" height="630">
  <defs>
    <linearGradient id="grad" x1="0%" y1="0%" x2="100%" y2="100%">
      <stop offset="0%" stop-color="#06b6d4"/>
      <stop offset="100%" stop-color="#10b981"/>
    </linearGradient>
  </defs>
  <rect width="1200" height="630" fill="#0f172a"/>
  <!-- Central hexagon -->
  <polygon points="600,240 660,270 660,330 600,360 540,330 540,270" fill="none" stroke="url(#grad)" stroke-width="2" opacity="0.9"/>
  <polygon points="600,250 650,275 650,325 600,350 550,325 550,275" fill="url(#grad)" opacity="0.06"/>
  <!-- Surrounding hexagons -->
  <polygon points="460,180 520,210 520,270 460,300 400,270 400,210" fill="none" stroke="url(#grad)" stroke-width="1.5" opacity="0.5"/>
  <polygon points="740,180 800,210 800,270 740,300 680,270 680,210" fill="none" stroke="url(#grad)" stroke-width="1.5" opacity="0.5"/>
  <polygon points="460,360 520,390 520,450 460,480 400,450 400,390" fill="none" stroke="url(#grad)" stroke-width="1.5" opacity="0.5"/>
  <polygon points="740,360 800,390 800,450 740,480 680,450 680,390" fill="none" stroke="url(#grad)" stroke-width="1.5" opacity="0.5"/>
  <polygon points="600,420 660,450 660,510 600,540 540,510 540,450" fill="none" stroke="url(#grad)" stroke-width="1.2" opacity="0.35"/>
  <polygon points="600,100 660,130 660,190 600,220 540,190 540,130" fill="none" stroke="url(#grad)" stroke-width="1.2" opacity="0.35"/>
  <!-- Outer hexagons -->
  <polygon points="320,260 360,280 360,320 320,340 280,320 280,280" fill="none" stroke="url(#grad)" stroke-width="1" opacity="0.25"/>
  <polygon points="880,260 920,280 920,320 880,340 840,320 840,280" fill="none" stroke="url(#grad)" stroke-width="1" opacity="0.25"/>
  <!-- Connection lines between hexagons -->
  <line x1="540" y1="270" x2="520" y2="270" stroke="url(#grad)" stroke-width="1" opacity="0.4"/>
  <line x1="660" y1="270" x2="680" y2="270" stroke="url(#grad)" stroke-width="1" opacity="0.4"/>
  <line x1="540" y1="330" x2="520" y2="390" stroke="url(#grad)" stroke-width="1" opacity="0.35"/>
  <line x1="660" y1="330" x2="680" y2="390" stroke="url(#grad)" stroke-width="1" opacity="0.35"/>
  <line x1="600" y1="360" x2="600" y2="420" stroke="url(#grad)" stroke-width="1" opacity="0.3"/>
  <line x1="600" y1="240" x2="600" y2="220" stroke="url(#grad)" stroke-width="1" opacity="0.3"/>
  <line x1="400" y1="270" x2="360" y2="280" stroke="url(#grad)" stroke-width="0.8" opacity="0.2"/>
  <line x1="800" y1="270" x2="840" y2="280" stroke="url(#grad)" stroke-width="0.8" opacity="0.2"/>
  <!-- Data flow dots -->
  <circle cx="530" cy="270" r="3" fill="url(#grad)" opacity="0.6"/>
  <circle cx="670" cy="270" r="3" fill="url(#grad)" opacity="0.6"/>
  <circle cx="530" cy="360" r="2.5" fill="url(#grad)" opacity="0.5"/>
  <circle cx="670" cy="360" r="2.5" fill="url(#grad)" opacity="0.5"/>
  <circle cx="600" cy="300" r="4" fill="url(#grad)" opacity="0.7"/>
  <!-- Center cross symbol -->
  <line x1="590" y1="300" x2="610" y2="300" stroke="url(#grad)" stroke-width="2" stroke-linecap="round" opacity="0.8"/>
  <line x1="600" y1="290" x2="600" y2="310" stroke="url(#grad)" stroke-width="2" stroke-linecap="round" opacity="0.8"/>
</svg>